<svg width="11" height="16" fill="none" xmlns="http://www.w3.org/2000/svg"><path d="M1.508 9.25l.005.007L5.5 15.112l3.987-5.855.005-.008.005-.007c.74-1.002 1.075-2.363.99-3.72C10.402 4.167 9.9 2.87 9.033 1.99a4.936 4.936 0 00-7.066 0l-.459 7.26zm0 0l-.005-.008m.005.007l-.005-.007m0 0C.763 8.24.428 6.879.513 5.522m.99 3.72l-.99-3.72m0 0C.598 4.167 1.1 2.87 1.967 1.99L.513 5.523zm2.725.016c0 1.288 1.029 2.347 2.316 2.347 1.286 0 2.315-1.059 2.315-2.347S6.84 3.192 5.554 3.192c-1.287 0-2.316 1.058-2.316 2.346z" stroke="#fff"/></svg>