<svg width="17" height="16" fill="none" xmlns="http://www.w3.org/2000/svg"><mask id="a" fill="#fff"><path d="M16.003 12.627a.774.774 0 01-.238.678l-2.254 2.237a1.27 1.27 0 01-.398.288c-.164.08-.325.13-.483.153l-.102.008a2.16 2.16 0 01-.22.009c-.215 0-.562-.037-1.043-.11-.48-.074-1.067-.255-1.762-.543-.695-.288-1.483-.72-2.365-1.296-.88-.576-1.819-1.367-2.813-2.373-.791-.78-1.446-1.526-1.966-2.237a15.94 15.94 0 01-1.254-1.975 10.635 10.635 0 01-.712-1.644A8.722 8.722 0 01.07 4.551a4.198 4.198 0 01-.068-.84c.011-.203.017-.316.017-.338.022-.158.073-.32.152-.483a1.27 1.27 0 01.288-.398L2.715.237A.747.747 0 013.257 0a.63.63 0 01.39.127c.113.085.209.19.288.314l1.814 3.44c.101.181.13.379.084.594a1.057 1.057 0 01-.288.542l-.83.83a.283.283 0 00-.06.11.418.418 0 00-.025.128c.045.237.147.508.305.813.136.271.345.602.627.992.283.39.684.839 1.204 1.347.508.52.96.924 1.355 1.212.396.288.726.5.992.636.266.135.469.217.61.245l.212.043c.023 0 .06-.009.11-.026a.285.285 0 00.11-.059l.966-.983c.204-.18.441-.271.712-.271.192 0 .345.034.458.101h.017l3.271 1.933c.237.147.379.333.424.56z"/></mask><path d="M16.003 12.627l.991-.13-.004-.033-.007-.033-.98.196zm-.238.678l.705.71.003-.003-.707-.707zm-2.254 2.237l-.704-.71-.02.02-.019.021.743.67zm-.398.288l-.434-.9.434.9zm-.483.153v1h.071l.07-.01-.141-.99zm-.102.008l.1.996-.1-.995zm-3.025-.644l.383-.923-.383.923zm-2.365-1.296l.548-.837-.548.837zm-2.813-2.373l.711-.703-.01-.01-.701.713zM2.359 9.44l-.808.59.808-.59zM1.105 7.466l.886-.464-.886.464zM.02 3.373l-.99-.142-.01.07v.072h1zm.44-.881l.67.743.019-.018.019-.018-.708-.707zM2.715.237l.707.707-.707-.707zm1.22.204l.885-.467-.02-.036-.021-.034-.844.537zm1.814 3.44l-.885.467.006.012.007.012.872-.49zm-.204 1.136l-.707-.707.707.707zm-.83.83l.707.708-.707-.708zm-.085.238h-1v.094l.018.093.982-.187zm.305.813l.894-.447-.003-.006-.003-.007-.888.46zm1.83 2.34l.715-.7-.007-.008-.008-.008-.7.715zm1.356 1.211l-.588.808.588-.808zm1.602.881l.196-.98-.196.98zm.212.043l-.196.98.097.02h.099v-1zm.11-.026l.316.95v-.001l-.316-.949zm.11-.059l.708.707.006-.006-.714-.701zm.966-.983l-.664-.748-.025.023-.024.024.713.701zm1.17-.17l-.515.858.238.143h.277v-1zm.017 0l.508-.86-.235-.14h-.273v1zm3.271 1.933l.526-.85-.008-.006-.01-.005-.508.86zm-.568.689a.227.227 0 01.014-.096c.016-.047.038-.067.033-.063l1.415 1.414a1.77 1.77 0 00.521-1.514l-1.983.259zm.05-.162l-2.254 2.237 1.409 1.42 2.254-2.237-1.409-1.42zm-2.293 2.278s-.005.006-.019.016a.46.46 0 01-.07.04l.868 1.802c.26-.125.504-.294.708-.52l-1.487-1.338zm-.09.057a.654.654 0 01-.19.063l.283 1.98c.273-.04.533-.124.777-.242l-.87-1.801zm-.048.053c-.075 0-.173.01-.201.013l.199 1.99c.012 0 .023-.002.032-.003l.02-.002a.027.027 0 00.001 0l-.014.001h-.037v-2zm-.2.013a1.055 1.055 0 01-.122.004v2c.107 0 .217-.003.32-.013l-.199-1.99zm-.122.004c-.132 0-.415-.026-.891-.099l-.303 1.977c.484.074.897.122 1.194.122v-2zm-.891-.099c-.37-.056-.875-.205-1.531-.477L9.12 16.27c.733.304 1.404.517 1.994.607l.303-1.977zm-1.531-.477c-.62-.257-1.352-.655-2.2-1.21L6.59 14.888c.915.598 1.759 1.064 2.529 1.383l.766-1.847zm-2.2-1.21c-.806-.527-1.69-1.268-2.65-2.24l-1.422 1.407c1.028 1.04 2.02 1.881 2.977 2.507l1.095-1.674zm-2.66-2.248c-.761-.751-1.379-1.456-1.86-2.115l-1.615 1.18c.559.764 1.252 1.55 2.072 2.36l1.404-1.425zM3.167 8.85a14.954 14.954 0 01-1.175-1.849L.219 7.93c.344.659.791 1.36 1.332 2.1l1.615-1.179zM1.991 7.002a9.653 9.653 0 01-.646-1.486l-1.904.612c.18.56.443 1.162.778 1.802l1.772-.928zm-.646-1.486a7.753 7.753 0 01-.287-1.122l-1.975.314c.067.423.19.899.358 1.42l1.904-.612zm-.287-1.122a3.322 3.322 0 01-.057-.627l-1.997-.11c-.017.308.018.67.079 1.05l1.975-.313zm-.057-.627c.01-.18.019-.335.019-.394h-2v-.008l-.003.06-.013.231 1.997.111zm.009-.253a.656.656 0 01.063-.19l-1.801-.869a2.646 2.646 0 00-.242.776l1.98.283zm.063-.19a.472.472 0 01.04-.07l.016-.02-1.338-1.486a2.267 2.267 0 00-.52.707l1.802.87zm.095-.125L3.422.944 2.008-.47-.247 1.784 1.168 3.2zM3.422.944c.002-.002-.014.015-.052.031A.29.29 0 013.257 1v-2c-.496 0-.924.205-1.25.53L3.423.944zM3.257 1a.375.375 0 01-.21-.073l1.2-1.6A1.632 1.632 0 003.257-1v2zm-.21-.073a.18.18 0 01.044.05L4.78-.095a2.178 2.178 0 00-.532-.577l-1.2 1.6zm.003-.02l1.814 3.44 1.77-.932L4.82-.025 3.05.906zm1.827 3.465a.194.194 0 01-.02-.065c-.005-.028-.001-.043-.002-.038l1.957.412a1.824 1.824 0 00-.192-1.29l-1.743.98zm-.022-.103a.13.13 0 01-.01.033.03.03 0 01-.007.008l1.414 1.414c.292-.292.477-.65.56-1.043l-1.957-.412zm-.017.04l-.83.831 1.414 1.415.83-.831L4.838 4.31zm-.83.831a1.27 1.27 0 00-.301.501l1.897.633a.813.813 0 01-.182.28L4.008 5.14zm-.301.501a1.4 1.4 0 00-.077.444h2a.71.71 0 01-.026.189L3.707 5.64zm-.06.63c.07.364.215.73.4 1.088l1.776-.921a2.102 2.102 0 01-.21-.54l-1.965.374zm.394 1.075c.17.34.413.72.711 1.13l1.62-1.173a6.526 6.526 0 01-.543-.852l-1.788.895zm.711 1.13c.328.453.772.946 1.314 1.476l1.399-1.43c-.498-.486-.856-.892-1.093-1.219l-1.62 1.174zm1.299 1.46c.53.543 1.025.989 1.482 1.321L8.71 9.641c-.334-.244-.743-.606-1.23-1.103L6.05 9.936zm1.482 1.321a8.69 8.69 0 001.125.718l.91-1.78a6.903 6.903 0 01-.858-.554l-1.177 1.616zm1.125.718c.28.143.586.28.87.336l.39-1.961c.014.002-.01-.001-.08-.03a3.455 3.455 0 01-.27-.126l-.91 1.781zm.869.336l.212.042.392-1.96-.212-.043-.392 1.96zm.408.062c.201 0 .375-.06.426-.077L9.73 10.4c-.007.002.003-.002.026-.007a.704.704 0 01.18-.02v2zm.427-.077c.11-.037.318-.118.5-.3L9.449 10.58a.815.815 0 01.28-.182l.634 1.897zm.507-.307l.966-.983-1.427-1.402-.966.983 1.427 1.402zm.917-.936a.14.14 0 01.018-.015c.002 0 .003-.001.003-.002h.004a.082.082 0 01.022-.002v-2c-.517 0-.99.18-1.376.523l1.329 1.496zm.047-.02c.04 0 .05.004.042.002a.35.35 0 01-.099-.042l1.03-1.715a1.878 1.878 0 00-.973-.244v2zm.458.103h.017v-2h-.017v2zm-.492-.14l3.271 1.933 1.018-1.722-3.272-1.933-1.017 1.723zm3.254 1.922c.033.02.03.026.013.004a.236.236 0 01-.044-.099l1.961-.392c-.11-.554-.459-.954-.878-1.213l-1.053 1.7z" fill="#fff" mask="url(#a)"/></svg>